<?xml version="1.0" encoding="UTF-8" standalone="no" ?>
<!DOCTYPE svg PUBLIC "-//W3C//DTD SVG 1.1//EN" "http://www.w3.org/Graphics/SVG/1.1/DTD/svg11.dtd">
<svg xmlns="http://www.w3.org/2000/svg" xmlns:xlink="http://www.w3.org/1999/xlink" version="1.1" width="200" height="800" viewBox="0 0 200 800" xml:space="preserve">
<desc>Created with Fabric.js 5.2.4</desc>
<defs>
</defs>
<rect x="0" y="0" width="100%" height="100%" fill="transparent"></rect>
<g transform="matrix(1 0 0 1 100 400)" id="e6984754-3daf-42f1-a96a-0f6798aa0654"  >
<rect style="stroke: none; stroke-width: 1; stroke-dasharray: none; stroke-linecap: butt; stroke-dashoffset: 0; stroke-linejoin: miter; stroke-miterlimit: 4; fill: rgb(255,255,255); fill-rule: nonzero; opacity: 1; visibility: hidden;" vector-effect="non-scaling-stroke"  x="-100" y="-400" rx="0" ry="0" width="200" height="800" />
</g>
<g transform="matrix(Infinity NaN NaN Infinity 0 0)" id="e336a91d-b415-463c-924a-5c414e4813d1"  >
</g>
<g transform="matrix(0.3 0 0 0.3 80.84 401.56)"  >
<g style="" vector-effect="non-scaling-stroke"   >
		<g transform="matrix(1 0 0 1 68.26 -4.13)"  >
<rect style="stroke: none; stroke-width: 1; stroke-dasharray: none; stroke-linecap: butt; stroke-dashoffset: 0; stroke-linejoin: miter; stroke-miterlimit: 4; fill: rgb(255,255,255); fill-rule: nonzero; opacity: 1; visibility: hidden;" vector-effect="non-scaling-stroke"  x="-100" y="-400" rx="0" ry="0" width="200" height="800" />
</g>
		<g transform="matrix(0 1.86 -1.69 0 0 0)"  >
<path style="stroke: rgb(0,0,0); stroke-width: 0; stroke-dasharray: none; stroke-linecap: butt; stroke-dashoffset: 0; stroke-linejoin: miter; stroke-miterlimit: 4; fill: rgb(154,20,93); fill-rule: nonzero; opacity: 1;" vector-effect="non-scaling-stroke"  transform=" translate(-720, -160)" d="M 0 0 L 240 224 L 480 128 L 720 256 L 960 160 L 1200 160 L 1440 128 L 1440 320 L 1200 320 L 960 320 L 720 320 L 480 320 L 240 320 L 0 320 Z" stroke-linecap="round" />
</g>
</g>
</g>
</svg>