<?xml version="1.0" encoding="UTF-8" standalone="no" ?>
<!DOCTYPE svg PUBLIC "-//W3C//DTD SVG 1.1//EN" "http://www.w3.org/Graphics/SVG/1.1/DTD/svg11.dtd">
<svg xmlns="http://www.w3.org/2000/svg" xmlns:xlink="http://www.w3.org/1999/xlink" version="1.1" width="1080" height="1080" viewBox="0 0 1080 1080" xml:space="preserve">
<desc>Created with Fabric.js 5.2.4</desc>
<defs>
</defs>
<g transform="matrix(1 0 0 1 540 540)" id="2338616a-7207-451b-86d0-5b532b70a012"  >
<rect style="stroke: none; stroke-width: 1; stroke-dasharray: none; stroke-linecap: butt; stroke-dashoffset: 0; stroke-linejoin: miter; stroke-miterlimit: 4; fill: rgb(255,255,255); fill-rule: nonzero; opacity: 1; visibility: hidden;" vector-effect="non-scaling-stroke"  x="-540" y="-540" rx="0" ry="0" width="1080" height="1080" />
</g>
<g transform="matrix(1 0 0 1 540 540)" id="4e8c8500-3a35-4f9b-8ce0-fe3ac640f30f"  >
</g>
<g transform="matrix(6.13 0 0 7.52 540.4 539.83)" id="bc557e9d-e13b-405b-8f11-5b8f537caaad"  >
<path style="stroke: rgb(0,0,0); stroke-width: 0; stroke-dasharray: none; stroke-linecap: butt; stroke-dashoffset: 0; stroke-linejoin: miter; stroke-miterlimit: 4; fill: rgb(255,0,102); fill-rule: nonzero; opacity: 1;" vector-effect="non-scaling-stroke"  transform=" translate(-0.39, -2.76)" d="M 39.3 -65.2 C 51.5 -60.9 62.4 -51.6 71.8 -39.9 C 81.2 -28.2 89 -14.1 87.8 -0.7 C 86.6 12.7 76.3 25.4 67 37.2 C 57.7 49 49.3 59.9 38.2 66.2 C 27.2 72.6 13.6 74.4 0.2 74 C -13.2 73.6 -26.3 71 -35.7 63.7 C -45.1 56.4 -50.7 44.5 -59.3 33.1 C -68 21.7 -79.6 10.8 -84.5 -2.8 C -89.4 -16.5 -87.5 -33 -78.6 -43.8 C -69.6 -54.6 -53.6 -59.9 -39.3 -63 C -25 -66 -12.5 -67 0.5 -67.9 C 13.5 -68.7 27 -69.5 39.3 -65.2 Z" stroke-linecap="round" />
</g>
</svg>