<?xml version="1.0" encoding="UTF-8" standalone="no" ?>
<!DOCTYPE svg PUBLIC "-//W3C//DTD SVG 1.1//EN" "http://www.w3.org/Graphics/SVG/1.1/DTD/svg11.dtd">
<svg xmlns="http://www.w3.org/2000/svg" xmlns:xlink="http://www.w3.org/1999/xlink" version="1.1" width="1080" height="1080" viewBox="0 0 1080 1080" xml:space="preserve">
<desc>Created with Fabric.js 5.2.4</desc>
<defs>
</defs>
<g transform="matrix(1 0 0 1 540 540)" id="373604a8-3df5-4714-a6a0-71b914528b88"  >
<rect style="stroke: none; stroke-width: 1; stroke-dasharray: none; stroke-linecap: butt; stroke-dashoffset: 0; stroke-linejoin: miter; stroke-miterlimit: 4; fill: rgb(255,255,255); fill-rule: nonzero; opacity: 1; visibility: hidden;" vector-effect="non-scaling-stroke"  x="-540" y="-540" rx="0" ry="0" width="1080" height="1080" />
</g>
<g transform="matrix(1 0 0 1 540 540)" id="babeb8e3-0328-4574-aa1f-593a6ed6dd85"  >
</g>
<g transform="matrix(6.3 0 0 6.58 543.56 541.62)" id="b3c48637-03bc-4ae1-b7b5-c2ec1fa2e724"  >
<path style="stroke: rgb(0,0,0); stroke-width: 0; stroke-dasharray: none; stroke-linecap: butt; stroke-dashoffset: 0; stroke-linejoin: miter; stroke-miterlimit: 4; fill: rgb(255,0,102); fill-rule: nonzero; opacity: 1;" vector-effect="non-scaling-stroke"  transform=" translate(5.92, -2.37)" d="M 42.4 -74 C 53.3 -67.2 59.4 -52.5 65.8 -38.8 C 72.1 -25.2 78.8 -12.6 79 0.1 C 79.2 12.8 72.8 25.6 65.9 38.3 C 59 51 51.5 63.6 40.4 72.2 C 29.3 80.9 14.7 85.6 1 83.8 C -12.6 82.1 -25.2 73.8 -37.1 65.6 C -49 57.4 -60.2 49.3 -70.4 38.4 C -80.5 27.5 -89.6 13.8 -90.7 -0.7 C -91.9 -15.1 -85 -30.1 -75.9 -42.8 C -66.8 -55.4 -55.3 -65.6 -42.2 -71.2 C -29.2 -76.8 -14.6 -77.7 0.6 -78.7 C 15.8 -79.7 31.5 -80.8 42.4 -74 Z" stroke-linecap="round" />
</g>
</svg>