<?xml version="1.0" encoding="UTF-8" standalone="no" ?>
<!DOCTYPE svg PUBLIC "-//W3C//DTD SVG 1.1//EN" "http://www.w3.org/Graphics/SVG/1.1/DTD/svg11.dtd">
<svg xmlns="http://www.w3.org/2000/svg" xmlns:xlink="http://www.w3.org/1999/xlink" version="1.1" width="1080" height="1080" viewBox="0 0 1080 1080" xml:space="preserve">
<desc>Created with Fabric.js 5.2.4</desc>
<defs>
</defs>
<g transform="matrix(1 0 0 1 540 540)" id="8fd913ad-09f8-43a8-ae29-c816820a98d3"  >
<rect style="stroke: none; stroke-width: 1; stroke-dasharray: none; stroke-linecap: butt; stroke-dashoffset: 0; stroke-linejoin: miter; stroke-miterlimit: 4; fill: rgb(255,255,255); fill-rule: nonzero; opacity: 1; visibility: hidden;" vector-effect="non-scaling-stroke"  x="-540" y="-540" rx="0" ry="0" width="1080" height="1080" />
</g>
<g transform="matrix(1 0 0 1 540 540)" id="63f6db3c-e1f5-412f-ba97-7f099c5317fc"  >
</g>
<g transform="matrix(1 0 0 1 540 540)"  >
<g style="" vector-effect="non-scaling-stroke"   >
		<g transform="matrix(1 0 0 1 0 0)"  >
<rect style="stroke: none; stroke-width: 1; stroke-dasharray: none; stroke-linecap: butt; stroke-dashoffset: 0; stroke-linejoin: miter; stroke-miterlimit: 4; fill: rgb(68,189,50); fill-rule: nonzero; opacity: 1; visibility: hidden;" vector-effect="non-scaling-stroke"  x="-540" y="-540" rx="0" ry="0" width="1080" height="1080" />
</g>
		<g transform="matrix(6.42 0 0 6.34 -1.82 -0.1)"  >
<path style="stroke: rgb(0,0,0); stroke-width: 0; stroke-dasharray: none; stroke-linecap: butt; stroke-dashoffset: 0; stroke-linejoin: miter; stroke-miterlimit: 4; fill: rgb(68,189,50); fill-rule: nonzero; opacity: 1;" vector-effect="non-scaling-stroke"  transform=" translate(0.25, 3.73)" d="M 43 -74.8 C 56.4 -66.7 68.4 -56.6 75.3 -43.8 C 82.2 -30.9 84 -15.5 82.4 -0.9 C 80.9 13.6 75.9 27.3 68.3 38.9 C 60.7 50.5 50.5 60.1 38.7 67.6 C 26.8 75.1 13.4 80.4 -0.1 80.6 C -13.6 80.7 -27.2 75.7 -39.6 68.6 C -52.1 61.5 -63.4 52.3 -71.4 40.5 C -79.5 28.7 -84.4 14.4 -83.3 0.6 C -82.3 -13.2 -75.5 -26.4 -67.6 -38.5 C -59.7 -50.7 -50.9 -61.7 -39.4 -70.9 C -28 -80 -14 -87.3 0.4 -88 C 14.8 -88.7 29.6 -82.8 43 -74.8 Z" stroke-linecap="round" />
</g>
</g>
</g>
<g transform="matrix(NaN NaN NaN NaN 0 0)"  >
<g style=""   >
</g>
</g>
</svg>