<?xml version="1.0" encoding="UTF-8" standalone="no" ?>
<!DOCTYPE svg PUBLIC "-//W3C//DTD SVG 1.1//EN" "http://www.w3.org/Graphics/SVG/1.1/DTD/svg11.dtd">
<svg xmlns="http://www.w3.org/2000/svg" xmlns:xlink="http://www.w3.org/1999/xlink" version="1.1" width="1080" height="1080" viewBox="0 0 1080 1080" xml:space="preserve">
<desc>Created with Fabric.js 5.2.4</desc>
<defs>
</defs>
<g transform="matrix(1 0 0 1 540 540)" id="0cc55edd-d204-40db-8bab-967c930e87da"  >
<rect style="stroke: none; stroke-width: 1; stroke-dasharray: none; stroke-linecap: butt; stroke-dashoffset: 0; stroke-linejoin: miter; stroke-miterlimit: 4; fill: rgb(255,255,255); fill-rule: nonzero; opacity: 1; visibility: hidden;" vector-effect="non-scaling-stroke"  x="-540" y="-540" rx="0" ry="0" width="1080" height="1080" />
</g>
<g transform="matrix(1 0 0 1 540 540)" id="c226bfc2-6a1c-45c6-aeba-0fc842900a71"  >
</g>
<g transform="matrix(1 0 0 1 540 540)"  >
<g style="" vector-effect="non-scaling-stroke"   >
		<g transform="matrix(1 0 0 1 0 0)"  >
<rect style="stroke: none; stroke-width: 1; stroke-dasharray: none; stroke-linecap: butt; stroke-dashoffset: 0; stroke-linejoin: miter; stroke-miterlimit: 4; fill: rgb(254,211,48); fill-rule: nonzero; opacity: 1; visibility: hidden;" vector-effect="non-scaling-stroke"  x="-540" y="-540" rx="0" ry="0" width="1080" height="1080" />
</g>
		<g transform="matrix(6.17 0 0 6.69 -0.12 -1.09)"  >
<path style="stroke: rgb(0,0,0); stroke-width: 0; stroke-dasharray: none; stroke-linecap: butt; stroke-dashoffset: 0; stroke-linejoin: miter; stroke-miterlimit: 4; fill: rgb(254,211,48); fill-rule: nonzero; opacity: 1;" vector-effect="non-scaling-stroke"  transform=" translate(-6.27, 0.47)" d="M 44 -73.2 C 58.5 -68 72.5 -58.9 81.5 -46.1 C 90.5 -33.3 94.5 -16.6 92.2 -1.3 C 90 14.1 81.6 28.2 72.3 40.5 C 63 52.7 52.8 63.2 40.6 70.2 C 28.4 77.3 14.2 80.9 0.5 80 C -13.2 79.1 -26.3 73.8 -39.7 67.4 C -53.1 61.1 -66.8 53.7 -74 42.3 C -81.2 30.9 -81.9 15.5 -77.8 2.4 C -73.7 -10.7 -64.7 -21.4 -58.8 -35.1 C -53 -48.8 -50.2 -65.5 -40.9 -73.7 C -31.6 -81.8 -15.8 -81.5 -0.5 -80.7 C 14.8 -79.8 29.6 -78.4 44 -73.2 Z" stroke-linecap="round" />
</g>
</g>
</g>
<g transform="matrix(NaN NaN NaN NaN 0 0)"  >
<g style=""   >
</g>
</g>
</svg>